<svg xmlns="http://www.w3.org/2000/svg" width="28" height="28" viewBox="0 0 28 28">
  <g fill="none" fill-rule="evenodd">
    <path fill="#D3DDED" d="M3,0 L25,0 C26.6568542,1.167223e-15 28,1.34314575 28,3 L28,25 L28,25 C28,26.6568542 26.6568542,28 25,28 L3,28 L3,28 C1.34314575,28 2.41027941e-15,26.6568542 0,25 L0,3 L0,3 C-2.02906125e-16,1.34314575 1.34314575,3.04359188e-16 3,0 L3,0 Z M3.5,1 L3.5,1 C2.11928813,1 1,2.11928813 1,3.5 L1,3.5 L1,24.5 C1,25.8807119 2.11928813,27 3.5,27 L3.5,27 L24.5,27 C25.8807119,27 27,25.8807119 27,24.5 L27,3.5 C27,2.11928813 25.8807119,1 24.5,1 L24.5,1 L3.5,1 Z"/>
    <path fill="#D3DDEC" d="M9.34117173,14.002178 C9.34146161,14.2564641 9.43895726,14.5100251 9.63278456,14.7038524 L15.2961476,20.3672154 C15.6777966,20.7488644 16.3165825,20.7544853 16.7071068,20.363961 C17.1003537,19.9707141 17.0990881,19.3417288 16.7103612,18.9530019 L11.7573593,14 L16.7103612,9.04699812 C17.0920102,8.66534914 17.0976311,8.02656326 16.7071068,7.63603897 C16.3138598,7.24279201 15.6848746,7.24405763 15.2961476,7.63278456 L9.63278456,13.2961476 C9.44248947,13.4864427 9.34568052,13.7406658 9.34485148,13.9961665 Z"/>
  </g>
</svg>
